<svg width="38" height="41" viewBox="0 0 38 41" fill="none" xmlns="http://www.w3.org/2000/svg">
<path d="M31.771 21.6662C31.7508 18.3069 33.4267 15.7714 36.8188 13.9041C34.9208 11.4418 32.0537 10.0871 28.2678 9.82165C24.6838 9.56536 20.7667 11.7164 19.3332 11.7164C17.8188 11.7164 14.3459 9.91319 11.6201 9.91319C5.98672 9.99557 0 13.9865 0 22.1056C0 24.5038 0.484591 26.9813 1.45377 29.5382C2.74601 32.8975 7.4102 41.1356 12.2763 40.9983C14.8204 40.9434 16.6174 39.3598 19.9288 39.3598C23.1392 39.3598 24.805 40.9983 27.6419 40.9983C32.5484 40.9342 36.7683 33.4467 38 30.0782C31.4176 27.2681 31.771 21.8401 31.771 21.6662ZM26.0569 6.63625C28.813 3.67053 28.5606 0.970266 28.4798 0C26.0468 0.128148 23.2301 1.50117 21.6249 3.19455C19.8581 5.00694 18.8183 7.24953 19.0404 9.77589C21.6753 9.95895 24.0781 8.73239 26.0569 6.63625Z" fill="#004CD0" fill-opacity="0.85"/>
</svg>
