<svg width="29" height="29" viewBox="0 0 29 29" fill="none" xmlns="http://www.w3.org/2000/svg">
<path d="M14.5032 7.06477C10.3886 7.06477 7.06966 10.3844 7.06966 14.5C7.06966 18.6156 10.3886 21.9352 14.5032 21.9352C18.6179 21.9352 21.9368 18.6156 21.9368 14.5C21.9368 10.3844 18.6179 7.06477 14.5032 7.06477ZM14.5032 19.3339C11.8442 19.3339 9.67044 17.1661 9.67044 14.5C9.67044 11.8339 11.8378 9.66613 14.5032 9.66613C17.1687 9.66613 19.336 11.8339 19.336 14.5C19.336 17.1661 17.1622 19.3339 14.5032 19.3339ZM23.9747 6.76063C23.9747 7.72481 23.1984 8.49487 22.2409 8.49487C21.2769 8.49487 20.507 7.71834 20.507 6.76063C20.507 5.80291 21.2834 5.02639 22.2409 5.02639C23.1984 5.02639 23.9747 5.80291 23.9747 6.76063ZM28.8981 8.52075C28.7881 6.19765 28.2576 4.13985 26.5561 2.44444C24.8611 0.749024 22.8037 0.218398 20.4812 0.101919C18.0874 -0.033973 10.9126 -0.033973 8.51885 0.101919C6.20273 0.211927 4.1454 0.742553 2.44389 2.43797C0.742387 4.13338 0.218349 6.19117 0.101896 8.51428C-0.0339654 10.9086 -0.0339654 18.085 0.101896 20.4792C0.21188 22.8024 0.742387 24.8601 2.44389 26.5556C4.1454 28.251 6.19626 28.7816 8.51885 28.8981C10.9126 29.034 18.0874 29.034 20.4812 28.8981C22.8037 28.7881 24.8611 28.2574 26.5561 26.5556C28.2511 24.8601 28.7817 22.8024 28.8981 20.4792C29.034 18.085 29.034 10.915 28.8981 8.52075ZM25.8056 23.0483C25.301 24.3166 24.3241 25.2937 23.0496 25.8049C21.1411 26.562 16.6123 26.3873 14.5032 26.3873C12.3941 26.3873 7.85895 26.5556 5.95689 25.8049C4.68885 25.3002 3.71194 24.323 3.20084 23.0483C2.44389 21.1393 2.61857 16.6096 2.61857 14.5C2.61857 12.3904 2.45036 7.85423 3.20084 5.95175C3.70547 4.68342 4.68238 3.70629 5.95689 3.19508C7.86542 2.43797 12.3941 2.61269 14.5032 2.61269C16.6123 2.61269 21.1475 2.44444 23.0496 3.19508C24.3176 3.69982 25.2945 4.67695 25.8056 5.95175C26.5626 7.8607 26.3879 12.3904 26.3879 14.5C26.3879 16.6096 26.5626 21.1458 25.8056 23.0483Z" fill="#062457"/>
</svg>
