<svg width="29" height="29" viewBox="0 0 29 29" fill="none" xmlns="http://www.w3.org/2000/svg">
<path d="M6.49134 29H0.479018V9.63818H6.49134V29ZM3.48194 6.99705C1.5594 6.99705 0 5.40461 0 3.48202C1.37608e-08 2.55853 0.366846 1.67287 1.01984 1.01986C1.67283 0.366855 2.55847 0 3.48194 0C4.40541 0 5.29106 0.366855 5.94405 1.01986C6.59704 1.67287 6.96388 2.55853 6.96388 3.48202C6.96388 5.40461 5.40384 6.99705 3.48194 6.99705ZM28.9935 29H22.9942V19.5748C22.9942 17.3285 22.9488 14.4479 19.8682 14.4479C16.7423 14.4479 16.2633 16.8883 16.2633 19.413V29H10.2575V9.63818H16.0238V12.2793H16.1079C16.9106 10.7581 18.8714 9.15268 21.7966 9.15268C27.8814 9.15268 29 13.1597 29 18.3643V29H28.9935Z" fill="#062457"/>
</svg>
