<svg width="90" height="67" viewBox="0 0 90 67" fill="none" xmlns="http://www.w3.org/2000/svg">
<path d="M40.9212 24.3274C38.1208 22.9777 34.8296 22.8381 31.9883 23.8101C37.8672 23.8101 41.8138 26.533 43.7966 30.5361C44.9799 32.9165 43.0863 35.5992 40.5378 35.5992C43.0807 35.5992 44.9824 38.2771 43.7966 40.6622C41.7648 44.7644 37.4324 47.4252 32.7168 47.4252C32.64 47.4252 19.6814 46.2795 19.6814 46.2795L10.5185 50.7143C9.22369 51.3384 7.78439 50.7647 7.22142 49.6795L1.08724 37.8535C0.512268 36.7078 0.933945 35.3404 2.04567 34.7121L10.0586 30.3143L15.7328 20.4471C16.6145 12.8341 20.5251 5.84923 26.7359 0.934082C28.3077 -0.3224 30.6465 -0.100707 31.9117 1.41457C33.2151 2.92985 32.9852 5.14718 31.4133 6.40379C29.6881 7.80803 28.1544 9.39725 26.9276 11.1342C29.918 9.17542 33.3685 7.84513 37.164 7.40161C39.1958 7.14295 41.0362 8.51021 41.2663 10.469C41.5346 12.4277 40.116 14.2016 38.0841 14.4233C35.8604 14.682 33.7901 15.4211 31.9883 16.4559C35.5916 15.6961 40.0895 16.0386 44.1417 17.9341C45.9818 18.821 46.7486 20.9275 45.8284 22.7015C44.9468 24.4383 42.7232 25.1773 40.9212 24.3274ZM37.164 33.5664C36.3207 31.9034 34.6337 30.8686 32.7167 30.8686C32.0716 30.8668 31.4326 30.9879 30.8363 31.225C30.24 31.462 29.6982 31.8104 29.2421 32.2501C28.7861 32.6897 28.4247 33.2119 28.1788 33.7867C27.9329 34.3614 27.8073 34.9774 27.8093 35.599C27.8093 38.4487 30.2665 40.3295 32.7167 40.3295C34.6337 40.3295 36.3207 39.2947 37.164 37.6317C37.7775 36.375 39.0425 35.636 40.3844 35.599C39.0425 35.5622 37.7775 34.8231 37.164 33.5664ZM88.883 28.6143C89.4581 29.76 89.0363 31.1274 87.9245 31.7557L79.9117 36.1535L74.2376 46.0207C73.3559 53.6337 69.4453 60.6186 63.2344 65.5337C61.726 66.7455 59.3986 66.6168 58.0587 65.0532C56.7553 63.5379 56.9851 61.3206 58.5572 60.064C60.2824 58.6598 61.8159 57.0706 63.0427 55.3336C60.0524 57.2924 56.6018 58.6227 52.8063 59.0662C51.4236 59.3995 49.0046 58.3157 48.7041 55.9988C48.4357 54.0401 49.8543 52.2662 51.8863 52.0445C54.11 51.7857 56.1803 51.0467 57.9821 50.0119C54.3788 50.7716 49.8808 50.4292 45.8287 48.5337C43.9885 47.6468 43.2218 45.5403 44.142 43.7663C45.0235 42.0293 47.2473 41.2902 49.0493 42.1402C51.8497 43.49 55.1409 43.6296 57.9822 42.6576C52.1033 42.6576 48.1567 39.9346 46.1739 35.9315C44.9906 33.5511 46.8842 30.8685 49.4326 30.8685C46.8898 30.8685 44.9881 28.1906 46.1739 25.8055C48.1102 21.8961 52.2505 19.038 57.4838 19.0424L70.2891 20.1881L79.452 15.7533C80.7501 15.1278 82.1879 15.7063 82.7489 16.7881L88.883 28.6143ZM57.2535 26.1383C55.3365 26.1383 53.6495 27.1731 52.8062 28.8361C52.1927 30.0928 50.9277 30.8318 49.5858 30.8688C50.9277 30.9057 52.1927 31.6449 52.8062 32.9014C53.6495 34.5644 55.3365 35.5992 57.2535 35.5992C57.8986 35.601 58.5376 35.4799 59.1339 35.2428C59.7302 35.0058 60.272 34.6574 60.7281 34.2177C61.1841 33.7781 61.5455 33.2559 61.7914 32.6811C62.0373 32.1064 62.1629 31.4904 62.1609 30.8688C62.1609 28.0189 59.7037 26.1383 57.2535 26.1383Z" fill="#062457"/>
</svg>
