<svg width="71" height="57" viewBox="0 0 71 57" fill="none" xmlns="http://www.w3.org/2000/svg">
<path d="M69.4703 48.8657C71.7071 52.3531 68.8994 56.7123 64.4318 56.7123H6.27683C1.80062 56.7123 -0.99415 52.3463 1.23832 48.8657L30.3162 3.51849C32.5541 0.0294949 38.1592 0.0358168 40.3932 3.51849L69.4703 48.8657ZM35.3547 39.4903C32.276 39.4903 29.7802 41.7351 29.7802 44.5043C29.7802 47.2734 32.276 49.5183 35.3547 49.5183C38.4334 49.5183 40.9292 47.2734 40.9292 44.5043C40.9292 41.7351 38.4334 39.4903 35.3547 39.4903ZM30.0622 21.4675L30.9611 36.2915C31.0032 36.9852 31.6408 37.5283 32.4131 37.5283H38.2962C39.0685 37.5283 39.7062 36.9852 39.7482 36.2915L40.6472 21.4675C40.6926 20.7182 40.0294 20.0882 39.1951 20.0882H31.5141C30.6798 20.0882 30.0167 20.7182 30.0622 21.4675Z" fill="#062457"/>
</svg>
